<svg width="448" height="512" xmlns="http://www.w3.org/2000/svg">
 <!--! Font Awesome Pro 6.1.1 by @fontawesome - https://fontawesome.com License - https://fontawesome.com/license (Commercial License) Copyright 2022 Fonticons, Inc. -->

 <g>
  <title>Layer 1</title>
  <path id="svg_1" d="m272,0c17.7,0 32,14.33 32,32c0,17.67 -14.3,32 -32,32l-16,0l0,34.45c37.5,5.75 71.7,21.55 99.7,44.55l21.7,-21.6c12.5,-12.5 32.7,-12.5 45.2,0c12.5,12.5 12.5,32.7 0,45.2l-24.1,24.2c21.2,32.5 33.5,71.4 33.5,113.2c0,114.9 -93.1,208 -208,208c-114.9,0 -208,-93.1 -208,-208c0,-104 76.32,-190.2 176,-205.55l0,-34.45l-16,0c-17.7,0 -32,-14.33 -32,-32c0,-17.67 14.3,-32 32,-32l96,0zm-24,192c0,-13.3 -10.7,-24 -24,-24c-13.3,0 -24,10.7 -24,24l0,128c0,13.3 10.7,24 24,24c13.3,0 24,-10.7 24,-24l0,-128z"/>
  <rect stroke="#444" id="svg_3" height="195" width="75" y="152" x="187" fill="#000000"/>
 </g>
</svg>